<?xml version="1.0" standalone="no"?>
<!DOCTYPE svg PUBLIC "-//W3C//DTD SVG 20010904//EN"
 "http://www.w3.org/TR/2001/REC-SVG-20010904/DTD/svg10.dtd">
<svg version="1.0" xmlns="http://www.w3.org/2000/svg"
 width="577.000000pt" height="577.000000pt" viewBox="0 0 577.000000 577.000000"
 preserveAspectRatio="xMidYMid meet">
<metadata>
Created by potrace 1.14, written by Peter Selinger 2001-2017
</metadata>
<g transform="translate(0.000000,577.000000) scale(0.100000,-0.100000)"
fill="#000000" stroke="none">
<path d="M1391 4893 c-5 -10 -14 -44 -21 -75 -11 -46 -11 -60 0 -73 7 -8 18
-15 24 -15 7 0 18 -6 25 -12 7 -8 40 -13 79 -14 114 -2 105 3 97 -56 -7 -50
-49 -256 -94 -468 -12 -52 -35 -162 -52 -245 -54 -256 -53 -228 -7 -258 30
-19 182 -25 193 -7 3 5 53 233 111 507 57 274 107 505 109 513 3 10 15 15 32
14 16 -1 36 -3 46 -3 16 -1 16 -3 3 -23 -8 -13 -17 -36 -20 -53 -4 -16 -9 -41
-11 -55 -3 -14 -10 -45 -15 -70 -5 -25 -29 -137 -54 -250 -25 -113 -48 -221
-50 -240 -3 -19 -10 -51 -16 -70 -6 -19 -13 -51 -16 -70 -3 -19 -9 -55 -14
-79 -10 -58 0 -83 45 -110 33 -19 51 -21 207 -22 179 0 204 5 227 49 7 14 65
278 95 433 2 13 11 56 20 94 9 39 18 81 20 95 3 14 16 81 30 149 30 142 31
155 13 173 -7 7 -16 21 -20 31 -10 27 -50 37 -153 37 -105 0 -101 -4 -82 80 8
35 9 54 1 58 -5 4 -15 17 -22 30 l-12 22 -354 0 c-327 0 -355 -1 -364 -17z
m215 -21 c-3 -3 -34 -6 -68 -8 -35 -1 -71 -2 -80 -3 -12 -1 -22 -18 -34 -57
-11 -40 -19 -53 -27 -45 -7 7 -7 23 3 53 17 55 22 60 65 67 42 7 149 2 141 -7z
m34 -2 c0 -5 -2 -10 -4 -10 -3 0 -8 5 -11 10 -3 6 -1 10 4 10 6 0 11 -4 11
-10z m190 2 c0 -4 -40 -8 -90 -7 -49 0 -90 3 -90 7 0 5 41 8 90 8 50 0 90 -4
90 -8z m272 -78 c-9 -16 -10 -14 -9 8 1 15 6 23 11 18 4 -4 4 -16 -2 -26z
m-436 -102 c-2 -4 -7 -23 -10 -42 -3 -19 -14 -69 -25 -110 -10 -42 -22 -91
-25 -110 -14 -92 -47 -234 -56 -245 -5 -7 -7 -15 -3 -18 3 -4 1 -13 -5 -20 -7
-8 -10 -17 -7 -21 3 -3 0 -2 -6 3 -6 5 -8 15 -4 21 4 7 9 31 11 54 4 49 6 55
37 188 14 57 33 148 43 203 10 55 22 103 28 107 12 8 28 0 22 -10z m504 -8 c5
-5 -15 -10 -48 -12 -125 -6 -145 -24 -168 -151 -3 -13 -11 -54 -19 -90 -13
-59 -51 -235 -61 -285 -3 -18 -19 -94 -71 -333 -14 -69 -24 -85 -38 -63 -3 5
6 67 20 137 15 70 28 139 31 153 2 14 11 59 19 100 9 41 17 86 19 100 2 14 6
32 9 40 3 8 8 31 10 50 3 19 7 42 11 50 3 8 7 26 10 40 28 162 65 254 105 268
32 11 159 8 171 -4z m174 -2 c2 -4 -7 -9 -20 -10 -15 -1 -22 2 -19 8 7 12 32
13 39 2z m-239 -160 c-6 -29 -15 -75 -20 -107 -2 -11 -4 -20 -5 -20 -1 0 -3
-11 -6 -25 -2 -14 -7 -41 -11 -60 -3 -19 -5 -39 -4 -43 1 -5 -3 -6 -9 -2 -12
7 -14 45 -2 45 6 0 10 19 12 73 1 9 5 17 9 17 4 0 7 10 6 23 -1 12 0 26 3 32
6 10 10 32 13 77 1 15 6 25 11 22 4 -3 6 -17 3 -32z m81 -8 c12 -10 13 -21 3
-60 -14 -63 -18 -83 -24 -117 -3 -16 -14 -66 -25 -112 -11 -46 -22 -97 -25
-114 -12 -70 -36 -180 -52 -239 -14 -54 -19 -62 -37 -60 -31 4 -36 18 -14 40
16 16 17 22 6 36 -11 13 -11 14 1 7 11 -6 13 -2 9 18 -3 15 -2 28 2 29 4 2 11
14 15 27 5 18 4 22 -5 16 -10 -6 -11 -4 -4 6 5 8 9 25 10 39 1 14 6 43 12 65
6 22 13 58 17 80 8 55 16 79 29 87 7 5 8 8 0 8 -6 0 -9 13 -6 30 2 16 7 28 11
26 7 -5 10 14 12 67 1 15 5 27 9 27 5 0 6 10 2 22 -3 12 -1 19 4 15 6 -3 9 7
8 25 -2 33 18 78 25 56 2 -7 10 -18 17 -24z m-180 -471 c-3 -10 -8 -39 -12
-66 -3 -26 -10 -50 -15 -53 -5 -3 -6 -10 -3 -16 4 -7 2 -8 -4 -4 -11 6 -8 51
6 86 8 22 9 28 11 50 0 11 6 20 12 20 6 0 8 -8 5 -17z m-498 -45 c0 -18 -3
-37 -8 -43 -4 -5 -8 -14 -8 -20 0 -5 -5 -11 -11 -13 -7 -2 -8 6 -2 25 5 15 12
40 15 56 8 36 13 34 14 -5z"/>
<path d="M2528 4708 c-18 -13 -50 -122 -63 -214 -4 -27 -11 -56 -15 -64 -5 -8
-11 -33 -14 -55 -8 -54 -45 -230 -58 -280 -6 -22 -16 -71 -24 -110 -7 -38 -23
-117 -34 -174 -23 -112 -21 -131 10 -131 11 0 20 -4 20 -10 0 -6 37 -10 90
-10 105 0 97 -8 125 130 9 47 19 93 21 103 5 14 18 17 91 17 110 0 138 15 158
85 13 43 33 132 49 215 2 14 9 45 15 70 5 25 12 59 15 77 4 17 17 82 30 144
23 104 24 116 10 145 -31 66 -37 67 -232 72 -136 3 -181 0 -194 -10z m39 -41
c-8 -13 -18 -41 -21 -63 -4 -21 -8 -46 -11 -54 -2 -8 -6 -26 -9 -40 -10 -56
-27 -134 -66 -315 -23 -104 -43 -199 -45 -209 -31 -146 -58 -263 -62 -269 -3
-5 -9 -5 -14 0 -6 6 3 70 22 159 17 82 40 192 50 244 26 137 28 146 50 245 68
304 71 314 88 318 31 9 33 7 18 -16z m174 -141 c-10 -12 -9 -14 6 -11 29 4 32
-3 21 -43 -6 -20 -11 -46 -13 -57 -2 -21 -64 -311 -71 -332 -5 -20 -48 -15
-61 6 -10 15 -9 20 2 25 9 3 12 0 8 -10 -3 -7 0 -14 6 -14 6 0 12 5 12 10 1 6
2 16 3 23 1 6 -2 17 -6 24 -6 7 -4 14 3 19 8 5 9 3 4 -6 -6 -9 -4 -11 4 -5 9
5 10 10 2 18 -8 8 -6 16 7 31 9 11 11 16 5 12 -8 -4 -13 -1 -13 9 0 9 4 14 9
11 14 -9 21 20 8 33 -6 6 -7 11 -1 11 5 0 10 25 11 56 1 32 7 60 13 64 6 4 8
14 4 23 -3 10 -1 17 6 17 6 0 8 5 5 10 -4 6 -1 17 5 25 6 8 9 19 5 25 -9 14 1
40 16 40 9 0 8 -4 0 -14z m-77 -92 c-7 -3 -9 -14 -6 -26 3 -14 1 -19 -6 -15
-8 6 -9 23 -3 45 1 1 7 2 14 1 8 0 8 -2 1 -5z m-27 -124 c1 -11 -2 -20 -7 -20
-6 0 -7 17 -1 38 3 8 7 -1 8 -18z m-4 -42 c-8 -15 -14 -35 -16 -60 -1 -12 -5
-14 -11 -8 -7 7 -7 16 0 28 6 9 10 25 8 35 -1 9 4 17 12 17 10 0 12 -5 7 -12z"/>
<path d="M2886 3851 c-12 -19 -33 -140 -26 -151 22 -35 59 -40 305 -40 192 0
245 3 254 14 6 7 16 38 22 69 11 51 10 58 -10 86 l-22 31 -259 0 c-142 0 -261
-4 -264 -9z m40 -72 c-11 -37 -27 -52 -33 -32 -3 8 33 73 41 73 2 0 -2 -18 -8
-41z"/>
<path d="M1094 3479 c-12 -4 -24 -11 -27 -16 -3 -4 -22 -87 -42 -183 -33 -158
-63 -300 -140 -654 -29 -132 -29 -169 -1 -174 14 -3 16 -1 8 13 -6 13 2 73 30
204 21 102 43 209 48 236 6 28 12 61 15 75 3 14 8 39 10 55 3 17 19 82 36 145
16 63 32 133 35 155 10 71 24 113 40 119 25 10 37 -4 21 -22 -14 -17 -36 -102
-76 -297 -11 -55 -36 -176 -56 -270 -54 -250 -75 -347 -82 -379 -5 -26 -4 -29
15 -24 12 4 20 2 16 -3 -3 -5 -12 -9 -20 -9 -14 0 -20 -19 -6 -21 4 -1 40 -2
81 -3 84 -2 97 5 107 62 3 20 18 93 33 162 l26 125 87 5 c47 3 88 7 91 10 12
13 35 145 26 149 -6 2 -14 14 -19 27 -8 20 -17 24 -57 25 -27 1 -55 1 -64 0
-15 -2 -14 14 12 136 16 76 29 141 29 146 0 4 44 7 98 7 53 0 103 4 110 8 7 5
18 33 24 64 10 48 9 60 -6 92 l-17 36 -167 1 c-92 0 -174 2 -182 3 -8 2 -25 0
-36 -5z m372 -104 c1 -8 -2 -15 -6 -15 -5 0 -8 9 -7 20 1 21 10 18 13 -5z
m-171 -416 c11 -1 2 -5 -20 -8 -44 -7 -77 -3 -70 9 4 7 17 7 90 -1z m32 -54
c0 -8 -4 -12 -9 -9 -5 3 -6 10 -3 15 9 13 12 11 12 -6z"/>
<path d="M1665 3480 c-22 -3 -46 -9 -53 -13 -28 -18 -46 -80 -86 -287 -5 -29
-36 -168 -41 -190 -25 -94 -105 -516 -101 -527 9 -22 31 -9 28 15 -3 18 18
123 92 477 3 11 23 108 45 216 48 240 58 264 103 275 52 11 74 13 88 4 7 -5
-3 -10 -27 -15 -38 -7 -68 -26 -84 -56 -4 -9 -31 -126 -60 -260 -28 -134 -53
-253 -55 -264 -3 -11 -9 -40 -14 -65 -19 -96 -60 -277 -69 -307 -14 -49 2 -60
91 -58 79 1 98 7 98 32 0 11 4 13 13 6 6 -6 26 -9 42 -6 23 3 26 1 15 -7 -12
-8 -12 -12 -2 -18 17 -12 160 -8 171 4 5 5 21 65 36 134 14 69 28 132 30 140
2 8 10 49 19 90 8 41 31 147 50 236 74 339 73 333 52 388 -12 32 -25 48 -42
52 -31 8 -287 11 -339 4z m155 -190 c0 -5 7 -10 15 -10 8 0 15 -4 15 -10 0 -7
-42 -208 -65 -310 -2 -8 -4 -18 -4 -21 -2 -17 -48 -4 -58 16 -8 18 -7 22 2 18
7 -2 16 1 21 8 4 7 3 10 -3 6 -6 -4 -8 3 -5 18 2 14 8 27 12 30 5 3 6 -5 3
-17 -3 -13 -3 -21 0 -18 10 9 16 61 6 55 -15 -10 -10 7 9 29 16 19 16 20 0 7
-17 -12 -17 -10 -4 32 8 25 11 48 8 51 -3 4 1 6 8 6 7 0 10 3 7 7 -4 3 0 17 8
29 11 17 12 24 2 27 -9 3 -9 7 0 17 6 7 9 19 6 26 -3 8 0 14 6 14 6 0 11 -4
11 -10z m-65 -40 c-4 -6 -9 -27 -11 -48 -3 -20 -10 -55 -16 -77 -11 -39 -18
-76 -20 -102 -1 -7 -5 -13 -10 -13 -5 0 -7 10 -4 23 2 12 7 42 10 67 4 25 11
59 16 75 4 17 11 42 14 58 4 15 11 27 17 27 6 0 7 -5 4 -10z m-44 -428 c3 -1
6 -8 6 -16 0 -8 -6 -12 -14 -9 -7 3 -13 9 -13 14 0 5 -8 4 -19 -3 -10 -6 -18
-19 -16 -27 1 -9 0 -20 -4 -26 -6 -11 -12 -32 -13 -52 -1 -7 -5 -13 -10 -13
-6 0 -4 32 6 85 10 48 28 60 77 47z m26 -81 c-6 -39 -7 -43 -36 -173 -10 -48
-16 -89 -13 -92 5 -5 1 -6 -25 -6 -5 0 -8 8 -8 18 -1 9 -5 23 -9 31 -6 10 -5
12 2 7 7 -4 12 -2 12 3 0 6 -4 11 -10 11 -5 0 -10 5 -10 11 0 5 5 7 10 4 6 -3
10 -3 11 2 0 4 2 19 5 33 3 19 2 21 -6 10 -8 -13 -10 -12 -10 3 0 9 6 17 14
17 17 0 28 62 12 72 -8 6 -8 8 1 8 7 0 10 7 6 17 -4 11 -3 14 5 9 7 -4 12 -3
12 3 0 5 -6 12 -12 15 -10 5 -10 7 -1 12 7 3 10 11 7 18 -4 10 2 12 22 8 24
-4 26 -8 21 -41z"/>
<path d="M2174 3472 c-8 -7 -16 -23 -19 -35 -30 -142 -66 -307 -69 -327 -10
-53 -18 -88 -38 -175 -11 -49 -22 -103 -24 -120 -2 -16 -7 -37 -10 -47 -7 -22
-9 -34 -37 -173 -25 -121 -23 -145 10 -145 10 0 11 5 4 18 -6 11 -6 33 -1 58
5 21 11 51 14 66 2 15 12 63 20 105 27 130 36 175 76 358 16 77 32 154 36 170
3 17 12 57 20 90 37 147 32 138 69 138 70 0 83 -7 31 -17 -16 -3 -33 -9 -37
-13 -4 -4 -21 -71 -38 -148 -37 -168 -101 -470 -108 -505 -2 -14 -18 -86 -35
-160 -16 -74 -31 -143 -33 -152 -6 -28 19 -38 95 -36 69 2 100 14 100 39 0 6
9 5 21 -1 23 -13 41 -4 20 9 -13 8 -13 20 5 120 6 36 5 43 -7 36 -11 -6 -12
-5 -1 6 6 7 12 23 12 35 0 13 5 26 10 29 15 9 12 27 -2 19 -7 -4 -4 2 6 14 23
26 35 109 14 96 -10 -6 -11 -5 -1 8 7 8 10 18 6 21 -3 4 -1 7 6 7 8 0 11 6 7
16 -3 9 -2 12 5 9 6 -4 8 -13 5 -21 -4 -9 2 -14 15 -14 15 0 19 -5 15 -17 -3
-10 -21 -94 -41 -188 -19 -93 -37 -178 -39 -187 -6 -26 10 -32 92 -34 65 -2
74 0 87 19 10 17 70 280 129 572 3 11 9 40 15 65 5 25 12 56 15 70 2 14 11 59
20 100 9 41 17 89 19 105 2 17 6 36 10 42 9 14 -20 71 -41 82 -19 9 -164 7
-181 -3 -6 -4 -11 -16 -11 -27 0 -12 -7 -19 -20 -19 -11 0 -17 5 -15 13 3 6 1
18 -4 26 -13 20 -178 23 -197 3z m410 -21 c5 -1 6 -4 2 -8 -4 -5 -29 -9 -54
-9 -26 -1 -50 -2 -55 -3 -13 -2 -24 -41 -62 -226 -22 -108 -43 -185 -51 -192
-20 -15 -49 -10 -49 8 0 9 -9 13 -22 11 -21 -3 -22 0 -17 41 2 25 7 56 10 68
3 13 6 30 8 37 4 23 22 33 22 12 0 -11 -3 -20 -6 -20 -3 0 -6 -19 -8 -42 -1
-23 -7 -45 -13 -49 -6 -3 -4 -11 6 -19 12 -10 18 -10 30 0 8 7 13 16 10 20 -3
5 -1 11 4 15 6 3 7 13 4 22 -5 12 -3 14 8 8 11 -7 11 -5 -1 10 -8 10 -10 16
-4 12 7 -4 15 0 18 9 10 25 7 36 -6 28 -10 -6 -10 -5 -1 8 7 8 10 18 6 21 -3
4 -2 7 4 7 6 0 9 9 6 20 -3 11 0 20 6 20 6 0 11 5 11 11 0 5 -5 7 -12 3 -7 -4
-2 6 10 23 12 17 22 39 22 48 0 39 25 97 44 105 16 6 82 6 130 1z m-247 -7
c-3 -3 -12 -4 -19 -1 -8 3 -5 6 6 6 11 1 17 -2 13 -5z m57 -40 c3 -8 2 -12 -4
-9 -6 3 -10 10 -10 16 0 14 7 11 14 -7z m-160 -595 c-3 -22 -7 -48 -9 -57 -2
-9 -4 -25 -4 -34 -1 -10 -7 -18 -15 -18 -11 0 -13 7 -6 30 5 17 6 30 3 30 -3
0 0 6 6 14 6 8 11 18 9 22 -2 10 11 54 17 54 3 0 2 -18 -1 -41z m-37 -171 c-3
-7 -5 -2 -5 12 0 14 2 19 5 13 2 -7 2 -19 0 -25z m178 -180 c4 -4 -18 -7 -49
-7 -31 0 -56 4 -56 8 0 9 96 8 105 -1z"/>
<path d="M2757 3482 c-20 -4 -15 16 -83 -302 -4 -19 -8 -44 -9 -55 -1 -11 -9
-49 -18 -85 -24 -101 -59 -252 -63 -280 -5 -34 -17 -93 -20 -105 -17 -62 -35
-177 -31 -189 4 -9 15 -16 26 -16 10 0 21 -6 24 -13 4 -10 26 -13 84 -12 96 3
89 1 97 22 6 15 56 246 72 331 3 13 16 76 30 140 26 114 40 181 49 232 3 14
13 64 23 111 10 48 18 96 17 108 -1 11 1 21 5 21 3 0 6 9 7 20 1 11 -2 20 -7
20 -4 0 -11 11 -14 25 -4 14 -12 25 -19 26 -47 3 -156 4 -170 1z m90 -37 c-2
-5 -9 -11 -15 -11 -7 -1 -18 -2 -26 -3 -8 0 -19 -16 -25 -33 -10 -32 -60 -262
-97 -445 -2 -13 -27 -125 -54 -250 -45 -209 -48 -229 -33 -240 9 -7 12 -13 6
-13 -28 0 -45 33 -39 74 8 57 15 95 26 136 5 19 12 51 15 70 3 19 8 42 10 50
5 18 14 63 21 105 3 17 10 45 16 63 5 18 7 36 4 39 -3 3 -1 14 4 23 5 10 12
33 14 51 5 36 6 38 30 140 16 71 22 95 31 144 9 47 27 99 36 105 15 10 79 6
76 -5z m-194 -992 c-7 -2 -19 -2 -25 0 -7 3 -2 5 12 5 14 0 19 -2 13 -5z"/>
<path d="M3139 3480 c-48 -6 -73 -23 -88 -62 -7 -19 -35 -144 -65 -298 -3 -14
-33 -154 -67 -311 -67 -306 -68 -332 -21 -350 14 -6 30 -16 34 -22 5 -9 59
-12 187 -12 198 0 205 2 228 67 10 28 83 368 166 769 24 114 24 117 6 156 -10
22 -25 45 -33 52 -15 13 -263 20 -347 11z m33 -44 c-62 -21 -70 -38 -117 -257
-24 -113 -46 -216 -49 -229 -2 -14 -14 -70 -26 -125 -12 -55 -24 -111 -26
-125 -3 -14 -7 -33 -10 -42 -3 -9 -7 -27 -9 -40 -19 -99 -28 -128 -37 -122 -9
6 -7 44 7 119 7 38 42 212 49 245 12 53 52 250 60 290 18 102 61 258 74 273
18 20 69 36 97 29 16 -5 14 -7 -13 -16z m315 -111 c-1 -13 -6 -27 -9 -31 -4
-3 -5 2 -3 13 2 10 4 24 4 31 1 6 3 12 6 12 3 0 4 -11 2 -25z m-217 -15 c0 -5
-7 -7 -15 -4 -8 4 -15 8 -15 10 0 2 7 4 15 4 8 0 15 -4 15 -10z m-35 -30 c-3
-11 -8 -32 -11 -47 -3 -16 -9 -44 -14 -63 -5 -19 -11 -46 -14 -60 -15 -87 -19
-106 -26 -119 -5 -10 -9 -10 -14 -2 -4 6 -4 11 1 11 4 0 8 12 9 28 0 35 11 93
22 123 5 13 7 30 5 37 -3 6 0 12 5 12 5 0 9 8 8 18 -1 32 13 82 24 82 7 0 9
-8 5 -20z m78 -3 c10 -4 16 -11 12 -17 -3 -5 -12 -42 -20 -82 -8 -40 -17 -84
-20 -98 -7 -31 -7 -29 -50 -230 -19 -91 -40 -189 -47 -217 -10 -48 -13 -53
-38 -53 -17 0 -30 7 -34 16 -4 9 -9 14 -13 11 -3 -4 -11 1 -18 9 -12 17 1 94
17 94 4 0 5 8 2 18 -5 13 -4 14 4 3 7 -9 7 -23 1 -38 -13 -36 -11 -73 5 -73
12 0 30 34 27 53 -1 4 3 7 9 7 6 0 9 3 9 8 -1 4 0 9 1 12 1 3 3 25 5 50 3 25
6 56 9 70 2 14 7 43 11 65 3 22 9 49 12 60 4 11 8 26 9 34 6 34 27 117 32 125
3 5 7 32 9 60 3 28 9 56 14 62 5 6 6 14 3 17 -3 3 -2 12 2 19 5 7 9 16 10 21
1 4 2 10 3 15 1 4 5 2 9 -4 4 -6 15 -13 25 -17z m162 -27 c3 -5 1 -10 -4 -10
-6 0 -11 5 -11 10 0 6 2 10 4 10 3 0 8 -4 11 -10z"/>
<path d="M3646 3475 c-8 -7 -18 -27 -21 -46 -6 -41 -43 -220 -55 -269 -19 -77
-62 -267 -66 -290 -3 -14 -11 -59 -19 -100 -9 -41 -17 -86 -20 -100 -3 -14
-12 -61 -22 -106 -17 -84 -14 -118 11 -108 8 3 19 -3 25 -15 10 -18 20 -20 81
-18 39 2 75 8 80 13 6 6 24 73 40 150 17 76 34 146 37 154 11 25 10 75 -1 82
-8 6 -8 8 0 8 7 0 15 12 19 28 l8 27 8 -28 c13 -49 31 -282 20 -271 -3 3 -6 9
-7 12 0 4 -4 27 -8 52 -11 61 -27 87 -21 35 2 -22 7 -79 10 -127 7 -85 21
-118 45 -103 5 3 10 -1 10 -9 0 -18 2 -19 89 -21 54 -1 65 2 77 20 10 15 161
701 191 865 2 14 8 41 12 61 11 51 -14 101 -55 109 -40 9 -135 3 -146 -8 -13
-13 -50 -198 -53 -265 -2 -35 12 -22 18 18 3 17 10 50 17 75 7 25 14 54 16 65
9 52 18 81 27 86 12 8 115 4 124 -5 3 -3 -6 -7 -20 -7 -15 -1 -31 -3 -37 -4
-5 -1 -18 -3 -29 -4 -21 -1 -27 -21 -60 -187 -32 -159 -61 -287 -65 -291 -2
-3 -8 11 -12 29 l-8 33 -5 -29 c-3 -16 -11 -31 -18 -33 -13 -5 -22 107 -11
135 5 14 7 13 7 -5 1 -27 11 -53 21 -53 8 0 6 71 -10 235 -6 66 -12 127 -12
135 0 8 -6 22 -13 30 -6 8 -15 23 -18 33 -4 9 -12 17 -19 18 -97 5 -149 3
-162 -6z m151 -31 c2 -5 -11 -9 -29 -9 -79 3 -87 -7 -108 -120 -5 -27 -11 -59
-14 -70 -13 -55 -97 -444 -102 -470 -3 -16 -12 -55 -20 -85 -9 -30 -18 -73
-20 -95 -3 -22 -10 -56 -15 -75 -11 -43 -12 -63 -1 -56 4 2 14 0 22 -5 12 -7
11 -8 -5 -6 -56 10 -60 21 -35 107 5 19 17 71 25 115 8 44 26 132 40 195 14
63 28 128 30 144 6 42 44 221 50 237 2 8 7 25 9 39 27 139 30 149 49 157 27
12 120 10 124 -3z m40 -136 c-3 -8 -6 -5 -6 6 -1 11 2 17 5 13 3 -3 4 -12 1
-19z m-110 -433 c0 -8 -4 -15 -9 -15 -10 0 -11 14 -1 23 9 10 10 9 10 -8z
m-44 -107 c-4 -7 -8 -20 -8 -28 -3 -42 -19 -99 -26 -94 -5 3 -7 9 -4 14 2 4 7
25 10 46 9 56 15 74 26 74 6 0 7 -6 2 -12z"/>
<path d="M1477 2244 c-1 -1 -34 -4 -73 -7 -121 -9 -168 -50 -213 -184 -26 -78
-16 -151 35 -240 30 -52 30 -60 0 -114 -77 -141 -58 -373 36 -440 28 -21 44
-24 113 -23 44 0 90 6 103 13 18 10 34 10 76 0 77 -17 121 -6 135 33 6 17 11
104 11 200 0 165 1 169 26 208 22 33 26 48 21 81 -3 23 -10 45 -15 48 -15 10
-32 48 -32 74 0 35 -38 51 -101 44 -62 -8 -92 -25 -109 -66 -7 -18 -20 -31
-30 -31 -55 0 -103 149 -68 213 22 43 35 47 177 62 30 3 57 7 59 9 2 3 6 22 9
44 5 34 2 42 -18 55 -19 12 -132 29 -142 21z m10 -576 c4 -7 8 -60 9 -118 2
-149 -26 -212 -73 -168 -33 30 -46 91 -40 173 5 62 10 73 37 98 33 29 54 34
67 15z"/>
<path d="M2170 2238 c-14 -4 -33 -21 -42 -36 -15 -24 -83 -321 -103 -447 -4
-22 -13 -65 -20 -95 -37 -152 -77 -370 -72 -392 4 -14 24 -37 45 -52 38 -26
40 -26 219 -26 133 0 183 3 190 13 6 6 15 39 21 71 11 52 10 60 -6 72 -9 7
-13 14 -8 14 5 0 3 7 -4 15 -9 11 -34 15 -96 15 -80 0 -112 -10 -76 -25 16 -7
15 -8 -3 -15 -23 -9 -37 15 -24 41 7 14 68 295 85 394 3 17 11 55 19 85 7 30
16 69 18 85 9 55 19 83 30 88 7 2 54 4 105 4 51 0 98 5 103 10 6 6 16 36 23
67 11 46 11 59 1 70 -7 7 -15 21 -17 32 -3 18 -14 19 -183 20 -99 0 -191 -3
-205 -8z m365 -29 c5 -5 -47 -9 -142 -9 -163 0 -193 -6 -217 -42 -9 -13 -32
-100 -51 -193 -20 -94 -47 -219 -60 -280 -13 -60 -29 -136 -35 -167 -8 -39
-16 -58 -26 -58 -11 0 -12 4 -5 19 6 10 8 21 5 24 -3 3 2 41 11 84 9 43 19 92
22 108 5 32 26 130 48 230 8 33 23 103 35 155 24 109 44 137 99 142 72 6 306
-3 316 -13z m13 -44 c0 -14 -4 -27 -8 -30 -3 -2 -5 6 -4 18 1 12 3 25 3 30 2
18 9 5 9 -18z"/>
<path d="M2715 2238 c-52 -28 -63 -59 -109 -293 -9 -44 -34 -163 -56 -265 -61
-286 -80 -380 -80 -405 0 -17 13 -33 46 -54 l45 -31 159 0 c87 0 170 4 184 10
48 18 46 12 131 415 19 88 52 244 73 346 35 165 38 190 26 215 -31 69 -27 68
-221 70 -114 2 -185 -1 -198 -8z m191 -27 c-2 -3 -32 -8 -67 -9 -115 -6 -131
-26 -165 -212 -3 -14 -25 -117 -49 -230 -69 -323 -105 -495 -105 -503 0 -4 -5
-7 -11 -7 -13 0 -8 71 11 155 6 28 15 70 20 95 4 25 11 56 14 70 3 14 19 93
36 175 17 83 35 168 40 190 5 22 16 72 25 110 42 183 36 177 161 174 51 -1 92
-4 90 -8z m158 0 c4 -5 -3 -7 -14 -4 -23 6 -26 13 -6 13 8 0 17 -4 20 -9z
m-210 -136 c-4 -8 -9 -15 -13 -15 -3 0 -7 -24 -9 -53 -1 -28 -6 -53 -12 -55
-5 -2 -6 -10 -3 -18 3 -8 0 -14 -6 -14 -8 0 -10 14 -6 43 13 90 24 116 52 126
1 1 0 -6 -3 -14z m40 -20 c-4 -10 1 -12 15 -8 16 4 21 1 21 -15 0 -20 -64
-326 -112 -537 -11 -49 -22 -101 -25 -115 -5 -30 -5 -30 -37 -36 -19 -3 -26 0
-26 11 0 13 -17 20 -41 17 -9 -1 -1 52 15 108 8 27 12 51 9 54 -4 3 -2 6 3 6
5 0 10 17 12 38 2 35 9 77 12 77 1 0 3 11 6 25 19 111 43 178 44 118 0 -20 -5
-40 -10 -43 -6 -4 -8 -10 -5 -15 3 -5 1 -19 -4 -32 -5 -12 -11 -41 -15 -63 -8
-54 -12 -73 -29 -131 -8 -27 -12 -55 -10 -61 3 -7 1 -13 -4 -13 -4 0 -9 -11
-9 -25 -2 -22 2 -25 27 -23 19 2 28 7 25 15 -3 7 -2 13 3 13 4 0 8 7 8 15 0 8
-4 12 -9 9 -4 -3 -8 0 -8 5 0 6 6 11 13 12 9 0 9 2 -1 6 -6 2 -9 10 -5 16 4 7
8 14 8 17 5 50 31 158 37 154 4 -3 4 6 -2 20 -5 15 -5 26 0 28 5 2 12 20 14
40 3 20 10 54 15 75 6 21 13 56 17 78 3 22 13 53 21 69 8 15 10 25 4 22 -18
-11 -13 6 7 21 9 8 12 12 6 9 -6 -3 -10 8 -10 28 1 21 5 32 13 29 6 -3 9 -11
7 -18z"/>
<path d="M3073 1411 c-8 -7 -13 -23 -11 -35 1 -11 -1 -27 -5 -33 -5 -7 -6 -13
-2 -13 3 0 1 -9 -5 -20 -19 -35 -19 -80 0 -90 10 -5 20 -7 23 -3 4 3 9 -2 13
-11 5 -13 21 -16 89 -16 54 0 86 4 93 13 15 19 36 153 27 174 -5 10 -8 21 -7
25 6 29 -188 37 -215 9z m155 -10 c18 -1 31 -5 28 -9 -3 -5 -27 -8 -53 -7 -75
3 -85 -4 -100 -71 -7 -32 -14 -64 -15 -71 -1 -6 -7 -9 -14 -6 -7 2 -11 12 -9
21 1 9 6 37 10 62 12 76 26 88 95 83 14 -1 40 -2 58 -2z"/>
</g>
</svg>
